<svg id="svg" version="1.1" xmlns="http://www.w3.org/2000/svg" xmlns:xlink="http://www.w3.org/1999/xlink" width="400" height="298.5313751668892" viewBox="0, 0, 400,298.5313751668892"><g id="svgg"><path id="path0" d="M0.000 149.365 L 0.000 298.730 200.000 298.730 L 400.000 298.730 400.000 149.365 L 400.000 0.000 200.000 0.000 L 0.000 0.000 0.000 149.365 M299.925 40.222 C 309.530 43.818,315.147 56.103,310.618 63.605 C 309.906 64.783,304.748 70.202,304.338 70.202 C 303.718 70.202,281.105 48.368,281.105 47.769 C 281.105 47.434,286.217 42.299,287.379 41.467 C 290.672 39.107,295.633 38.615,299.925 40.222 M229.634 43.581 L 245.227 43.615 246.662 44.969 L 248.096 46.323 248.184 57.630 C 248.253 66.570,248.191 69.023,247.885 69.346 C 247.672 69.571,246.624 70.761,245.556 71.992 C 244.488 73.223,243.188 74.701,242.667 75.278 C 242.145 75.854,241.226 76.971,240.624 77.761 C 238.818 80.129,238.843 80.284,238.757 66.219 L 238.679 53.473 180.654 53.477 C 148.740 53.480,122.494 53.581,122.330 53.701 C 122.132 53.847,122.082 72.764,122.181 109.933 L 122.330 165.945 171.919 166.009 C 199.193 166.044,225.474 165.977,230.321 165.860 L 239.134 165.646 239.213 157.438 L 239.293 149.231 240.286 148.178 C 240.833 147.599,242.599 145.579,244.212 143.689 C 247.421 139.928,247.909 139.449,248.289 139.684 C 248.724 139.953,248.609 172.258,248.170 173.044 C 246.423 176.171,251.627 175.956,179.537 175.875 C 107.602 175.793,114.809 176.063,113.299 173.396 L 112.631 172.218 112.631 109.783 L 112.631 47.349 113.298 46.182 C 114.821 43.520,110.843 43.784,152.001 43.615 C 171.993 43.532,194.130 43.484,201.195 43.506 C 208.260 43.529,221.057 43.562,229.634 43.581 M292.626 47.418 C 290.470 48.190,290.424 48.116,296.953 54.404 C 303.879 61.073,303.351 60.705,303.946 59.282 C 306.587 52.960,299.091 45.103,292.626 47.418 M285.480 60.209 C 290.221 64.817,295.478 69.913,297.162 71.533 C 300.746 74.981,300.752 75.009,298.468 77.358 C 296.315 79.572,296.645 79.596,293.950 77.033 C 292.718 75.861,289.291 72.601,286.333 69.790 C 278.904 62.727,272.143 56.080,272.143 55.839 C 272.143 55.449,276.180 51.679,276.518 51.754 C 276.706 51.796,280.739 55.600,285.480 60.209 M271.546 63.480 L 274.072 66.020 271.390 68.756 C 269.915 70.260,268.439 71.787,268.111 72.149 C 267.782 72.510,265.429 74.945,262.883 77.559 C 255.146 85.501,240.523 100.578,236.408 104.854 C 227.230 114.395,227.304 114.298,226.946 117.348 L 226.759 118.937 227.709 118.729 C 228.231 118.614,228.865 118.424,229.116 118.308 C 232.333 116.816,233.138 116.264,235.146 114.170 C 243.908 105.033,252.750 95.861,257.078 91.418 C 259.882 88.539,264.126 84.167,266.509 81.703 C 268.892 79.238,272.467 75.544,274.452 73.494 L 278.061 69.766 280.632 72.425 L 283.203 75.084 279.663 78.692 C 267.171 91.424,262.156 96.562,258.363 100.516 C 256.002 102.977,251.567 107.548,248.508 110.673 C 236.493 122.949,236.878 122.467,236.505 125.691 C 236.290 127.551,236.381 127.582,239.352 126.665 C 241.242 126.081,241.375 125.967,246.771 120.317 C 249.793 117.152,254.495 112.278,257.220 109.485 C 259.944 106.692,264.047 102.466,266.337 100.095 C 268.627 97.723,272.996 93.220,276.045 90.087 C 279.095 86.955,282.780 83.148,284.234 81.628 C 285.688 80.108,287.002 78.865,287.155 78.865 C 287.557 78.865,292.158 83.074,292.158 83.442 C 292.158 83.805,290.613 85.431,273.366 103.217 C 247.518 129.873,248.237 129.113,247.472 130.577 C 246.439 132.556,248.043 131.786,231.964 138.027 C 226.378 140.196,221.404 142.141,220.911 142.349 C 215.550 144.617,214.285 144.772,212.934 143.325 C 211.719 142.024,211.833 141.369,215.338 129.500 C 215.748 128.110,216.122 126.775,218.387 118.606 C 219.547 114.422,220.655 110.793,220.850 110.541 C 221.183 110.107,226.252 104.816,230.172 100.809 C 232.678 98.248,239.906 90.778,244.180 86.333 C 246.155 84.279,249.592 80.714,251.817 78.411 C 261.804 68.071,267.830 61.741,268.051 61.357 C 268.483 60.604,268.992 60.913,271.546 63.480 M206.347 78.129 C 208.537 79.045,210.007 81.081,210.007 83.198 C 210.007 84.885,210.819 83.987,192.249 102.857 C 176.382 118.980,174.225 121.203,171.684 124.053 C 167.515 128.729,165.591 128.558,160.292 123.040 C 158.497 121.171,154.115 116.684,150.554 113.069 C 146.405 108.857,144.007 106.198,143.876 105.665 C 143.000 102.088,148.493 97.970,151.465 99.976 C 152.276 100.524,152.683 100.934,160.711 109.311 L 166.232 115.072 172.661 108.514 C 206.255 74.244,203.340 76.873,206.347 78.129 M146.980 227.334 C 147.065 234.810,147.165 240.783,147.204 240.609 C 147.243 240.435,147.513 240.031,147.806 239.713 C 148.098 239.394,149.103 238.193,150.039 237.043 C 150.975 235.892,153.062 233.338,154.677 231.367 L 157.614 227.782 163.049 227.701 C 166.918 227.643,168.484 227.716,168.484 227.955 C 168.484 228.207,165.510 231.801,164.302 233.010 C 164.025 233.287,160.865 237.032,159.765 238.387 C 159.165 239.126,157.929 240.538,157.018 241.524 C 156.108 242.509,155.357 243.471,155.351 243.661 C 155.342 243.931,160.352 250.170,163.949 254.369 C 165.484 256.161,168.095 259.449,168.484 260.080 C 169.156 261.170,168.767 261.263,163.152 261.351 C 157.641 261.438,158.024 261.546,156.385 259.456 C 155.382 258.177,154.108 256.592,152.867 255.081 C 152.411 254.525,150.932 252.612,149.581 250.831 L 147.125 247.591 147.044 254.093 C 146.945 262.109,147.443 261.425,141.779 261.322 L 137.267 261.240 137.267 238.835 L 137.267 216.430 141.299 215.041 C 143.518 214.276,145.668 213.671,146.079 213.696 L 146.826 213.742 146.980 227.334 M311.508 222.321 L 311.590 227.615 315.541 227.699 L 319.492 227.782 319.579 231.068 C 319.711 236.068,320.040 235.698,315.454 235.698 L 311.576 235.698 311.576 243.745 C 311.576 254.081,311.600 254.136,315.876 253.563 C 318.522 253.208,318.556 253.250,318.697 257.068 C 318.832 260.715,318.756 260.871,316.509 261.525 C 312.270 262.757,306.398 261.841,304.155 259.598 C 301.962 257.405,301.883 256.962,301.718 245.855 L 301.568 235.848 299.178 235.698 L 296.789 235.549 296.789 231.665 L 296.789 227.782 299.253 227.695 L 301.718 227.608 301.718 223.581 C 301.718 218.916,301.222 219.532,306.049 218.198 C 307.692 217.744,309.238 217.263,309.485 217.128 C 309.731 216.993,310.269 216.915,310.680 216.955 L 311.426 217.028 311.508 222.321 M182.844 217.849 C 183.372 218.403,186.658 222.646,189.233 226.101 C 189.555 226.532,191.322 228.907,193.160 231.378 C 197.578 237.319,197.030 237.053,199.135 234.281 C 201.164 231.609,205.093 226.499,205.625 225.840 C 205.824 225.594,207.316 223.611,208.942 221.434 L 211.897 217.476 216.033 217.476 L 220.168 217.476 220.092 239.358 L 220.015 261.240 215.502 261.322 C 211.976 261.386,210.915 261.315,210.651 260.996 C 210.413 260.709,210.289 256.675,210.235 247.381 L 210.157 234.174 203.883 242.087 C 196.712 251.133,196.976 250.947,195.006 248.354 C 194.302 247.428,193.391 246.239,192.980 245.711 C 192.569 245.184,191.830 244.222,191.337 243.575 C 190.844 242.928,189.096 240.668,187.453 238.554 L 184.466 234.709 184.388 247.649 C 184.337 256.188,184.203 260.718,183.995 260.969 C 183.760 261.251,182.507 261.335,179.143 261.295 L 174.608 261.240 174.455 239.582 C 174.369 227.254,174.416 217.763,174.567 217.550 C 175.098 216.799,182.082 217.051,182.844 217.849 M66.019 221.775 C 66.019 226.965,66.867 226.438,58.527 226.438 L 51.979 226.438 51.979 243.758 L 51.979 261.079 51.307 261.245 C 50.937 261.337,48.753 261.373,46.453 261.326 L 42.270 261.240 42.193 243.844 L 42.116 226.449 35.173 226.368 L 28.230 226.288 28.146 222.270 C 28.100 220.061,28.130 218.078,28.212 217.864 C 28.332 217.551,32.012 217.476,47.190 217.476 L 66.019 217.476 66.019 221.775 M382.141 227.287 C 382.361 227.499,381.904 234.232,381.605 235.173 C 381.465 235.615,381.070 235.698,379.113 235.698 C 372.333 235.698,371.866 236.655,371.877 250.509 C 371.885 260.264,371.857 260.804,371.325 261.089 C 370.482 261.540,362.576 261.477,362.044 261.016 C 361.675 260.696,361.635 258.258,361.763 244.063 L 361.912 227.483 366.053 227.400 C 370.706 227.306,371.023 227.416,371.023 229.113 C 371.023 230.644,371.172 230.682,372.446 229.481 C 374.728 227.328,380.763 225.963,382.141 227.287 M86.034 227.493 C 91.360 228.581,95.100 231.485,96.796 235.848 C 97.623 237.974,98.128 260.047,97.372 260.959 C 97.098 261.288,96.208 261.389,93.596 261.389 C 89.430 261.389,88.440 260.999,88.429 259.353 C 88.424 258.677,88.394 258.685,87.155 259.664 C 81.040 264.497,70.656 262.432,67.454 255.745 C 62.381 245.155,75.271 235.114,86.282 241.077 C 88.259 242.148,88.213 242.177,87.750 240.157 C 86.550 234.920,79.273 233.167,72.412 236.461 C 70.318 237.466,70.463 237.561,68.688 234.016 L 67.098 230.839 67.766 230.299 C 68.746 229.505,73.029 227.924,75.106 227.589 C 76.097 227.430,76.967 227.240,77.040 227.167 C 77.367 226.840,84.017 227.081,86.034 227.493 M121.934 227.354 C 126.382 228.244,129.734 229.716,129.894 230.849 C 129.996 231.561,127.516 236.478,126.744 237.097 C 126.393 237.379,125.957 237.278,124.615 236.609 C 120.499 234.557,116.202 234.159,114.582 235.681 C 112.911 237.251,113.963 238.798,117.401 239.825 C 125.139 242.138,126.574 242.754,128.566 244.621 C 133.052 248.827,131.286 257.260,125.287 260.278 C 119.301 263.289,107.356 262.187,103.691 258.286 L 102.988 257.538 103.604 256.551 C 103.943 256.008,104.781 254.579,105.467 253.376 C 106.937 250.795,107.109 250.696,108.624 251.564 C 114.683 255.034,119.788 255.631,121.135 253.026 C 122.129 251.103,120.642 249.669,116.505 248.562 C 107.114 246.049,104.556 243.816,104.556 238.131 C 104.556 230.219,112.289 225.423,121.934 227.354 M247.421 227.494 C 253.561 228.568,257.612 231.812,259.109 236.852 C 259.568 238.398,259.931 260.557,259.504 260.984 C 258.268 262.220,250.679 261.113,250.343 259.648 L 250.184 258.952 249.438 259.601 C 243.675 264.626,232.328 262.300,229.183 255.450 C 224.485 245.219,236.577 235.781,247.919 240.827 C 250.196 241.840,250.138 241.871,249.711 239.883 C 248.618 234.786,240.963 233.177,234.104 236.602 C 232.400 237.453,232.452 237.494,230.512 233.824 C 228.842 230.665,228.854 230.879,230.300 229.923 C 233.919 227.527,241.481 226.455,247.421 227.494 M285.097 227.633 C 291.053 228.950,292.918 230.493,291.487 232.918 C 291.118 233.543,290.474 234.716,290.057 235.523 C 289.042 237.486,288.581 237.748,287.493 236.979 C 283.883 234.428,277.493 234.066,276.397 236.352 C 275.558 238.101,276.738 239.064,281.255 240.318 C 290.097 242.774,292.756 245.238,292.756 250.977 C 292.756 261.048,279.734 265.590,267.749 259.700 C 264.491 258.099,264.514 258.304,267.124 254.025 C 267.510 253.393,268.022 252.489,268.262 252.018 C 268.859 250.845,269.264 250.761,270.573 251.541 C 273.222 253.120,274.196 253.595,276.003 254.189 C 280.056 255.519,283.497 254.463,283.495 251.890 C 283.494 250.521,281.849 249.488,277.969 248.418 C 269.041 245.957,266.425 243.549,266.491 237.853 C 266.585 229.709,274.592 225.311,285.097 227.633 M344.287 227.589 C 350.361 229.450,354.353 233.601,355.944 239.709 C 356.403 241.473,356.624 246.911,356.251 247.284 C 356.134 247.402,350.604 247.542,343.964 247.596 L 331.890 247.695 332.081 248.493 C 333.532 254.553,341.964 256.439,346.734 251.770 C 348.227 250.309,348.100 250.259,351.721 253.701 L 354.077 255.941 353.528 256.668 C 348.238 263.682,333.323 263.980,326.494 257.207 C 313.673 244.491,327.008 222.294,344.287 227.589 M336.221 235.270 C 334.263 236.285,332.725 238.317,332.298 240.454 L 332.114 241.374 339.307 241.374 L 346.501 241.374 346.054 240.105 C 344.548 235.820,339.730 233.452,336.221 235.270 M241.338 246.190 C 238.585 246.963,237.213 250.722,238.812 253.115 C 241.395 256.979,250.037 254.545,250.037 249.953 C 250.037 247.507,244.768 245.228,241.338 246.190 M79.462 246.334 C 76.752 247.375,75.997 248.516,76.270 251.162 C 76.822 256.503,86.292 256.218,87.781 250.816 C 88.536 248.073,82.876 245.023,79.462 246.334 " stroke="none" fill="#141a21" fill-rule="evenodd"></path><path id="path1" d="M291.412 40.074 C 289.537 40.692,288.094 41.397,287.229 42.119 C 285.537 43.532,281.703 47.411,281.703 47.711 C 281.703 48.220,302.750 68.679,304.035 69.419 C 304.382 69.618,305.119 69.046,307.105 67.038 C 309.510 64.605,309.967 63.984,310.931 61.837 C 313.211 56.759,311.128 49.690,305.800 44.424 C 303.986 42.631,300.022 40.329,298.749 40.329 C 298.430 40.329,298.085 40.194,297.984 40.030 C 297.747 39.648,292.600 39.682,291.412 40.074 M298.595 47.318 C 303.303 49.468,305.973 54.705,304.526 58.952 C 303.655 61.506,303.697 61.528,296.703 54.718 C 290.057 48.247,289.866 47.994,291.187 47.433 C 294.073 46.209,296.097 46.178,298.595 47.318 M274.548 53.906 L 272.633 55.838 275.773 58.912 C 286.447 69.364,296.094 78.551,296.405 78.560 C 296.878 78.574,299.328 75.697,299.328 75.127 C 299.328 74.427,297.658 72.660,289.612 64.847 C 286.494 61.821,282.260 57.686,280.203 55.659 L 276.462 51.975 274.548 53.906 M265.721 64.453 C 264.242 66.033,261.553 68.875,259.746 70.769 C 257.939 72.662,255.049 75.691,253.323 77.500 C 251.598 79.308,248.220 82.809,245.816 85.278 C 243.413 87.748,239.582 91.711,237.303 94.085 C 235.024 96.459,230.569 101.041,227.404 104.266 C 220.915 110.878,220.784 111.029,220.771 111.932 C 220.766 112.292,220.643 112.660,220.497 112.749 C 220.352 112.839,220.165 113.284,220.081 113.738 C 219.998 114.192,219.568 115.907,219.126 117.550 C 218.684 119.193,218.256 120.874,218.175 121.285 C 218.094 121.695,217.919 122.300,217.786 122.629 C 217.653 122.957,217.400 123.764,217.225 124.421 C 216.637 126.628,215.923 129.195,215.687 129.948 C 215.559 130.358,215.288 131.299,215.086 132.039 C 214.883 132.778,214.603 133.719,214.464 134.130 C 211.708 142.225,212.718 145.680,217.166 143.378 C 217.418 143.247,218.432 142.840,219.417 142.475 C 220.403 142.109,221.680 141.614,222.255 141.375 C 223.826 140.722,224.332 140.523,226.288 139.791 C 227.274 139.422,228.484 138.956,228.977 138.755 C 229.470 138.553,231.150 137.890,232.711 137.280 C 236.193 135.919,236.405 135.833,238.130 135.070 C 238.892 134.733,239.900 134.364,240.370 134.250 C 240.840 134.137,241.830 133.784,242.569 133.467 C 246.315 131.859,246.430 131.781,247.054 130.455 C 247.423 129.669,249.396 127.384,252.062 124.655 C 254.481 122.179,257.737 118.808,259.298 117.164 C 261.928 114.395,271.363 104.631,280.704 95.011 C 289.543 85.909,291.551 83.781,291.556 83.508 C 291.558 83.350,290.586 82.308,289.395 81.191 L 287.229 79.159 284.270 82.223 C 282.642 83.909,277.045 89.656,271.832 94.996 C 266.619 100.336,261.921 105.176,261.392 105.751 C 260.862 106.326,256.954 110.371,252.706 114.741 C 248.458 119.111,244.540 123.222,244.000 123.877 C 242.186 126.076,238.826 127.857,236.488 127.857 C 235.269 127.857,236.259 122.521,237.713 121.254 C 238.166 120.860,239.336 119.664,240.312 118.596 C 242.409 116.304,259.010 99.179,273.040 84.836 C 274.765 83.072,277.628 80.141,279.401 78.323 L 282.627 75.017 280.382 72.735 C 277.760 70.071,278.162 70.007,274.801 73.625 C 273.586 74.933,272.209 76.412,271.742 76.911 C 271.275 77.411,268.116 80.653,264.722 84.117 C 261.328 87.580,255.594 93.493,251.979 97.255 C 248.364 101.018,243.913 105.645,242.086 107.537 C 240.260 109.430,237.706 112.100,236.410 113.471 C 233.011 117.069,227.424 120.300,226.390 119.266 C 225.938 118.813,227.051 113.816,227.604 113.816 C 227.713 113.816,228.022 113.447,228.290 112.995 C 228.559 112.543,229.879 111.031,231.225 109.634 C 232.571 108.237,234.892 105.818,236.385 104.257 C 237.877 102.696,241.794 98.654,245.090 95.275 C 250.249 89.986,260.522 79.382,266.775 72.890 C 267.804 71.822,269.732 69.840,271.060 68.484 L 273.474 66.020 271.248 63.779 C 268.529 61.042,268.960 60.990,265.721 64.453 M141.598 215.339 L 137.565 216.729 137.489 238.667 C 137.428 256.019,137.491 260.654,137.787 260.843 C 138.334 261.190,145.003 261.144,145.943 260.787 L 146.741 260.483 146.626 253.617 C 146.498 246.005,146.472 246.095,148.112 248.384 C 148.755 249.283,151.209 252.442,153.564 255.405 L 157.847 260.792 163.166 260.792 C 166.091 260.792,168.484 260.723,168.484 260.639 C 168.484 260.556,167.375 259.138,166.019 257.490 C 164.664 255.841,163.084 253.908,162.509 253.195 C 161.934 252.481,159.951 250.077,158.103 247.851 C 154.421 243.418,154.520 243.591,155.265 242.903 C 155.896 242.320,157.647 240.352,159.671 237.950 C 160.493 236.976,162.375 234.775,163.854 233.059 C 165.332 231.343,166.922 229.488,167.385 228.936 L 168.229 227.931 163.023 227.931 L 157.818 227.931 156.373 229.798 C 155.579 230.825,153.639 233.211,152.063 235.101 C 150.486 236.990,148.752 239.108,148.210 239.806 C 146.327 242.230,146.276 242.039,146.456 233.234 C 146.657 223.371,146.413 213.880,145.959 213.920 C 145.779 213.936,143.816 214.575,141.598 215.339 M308.140 217.939 C 306.826 218.343,304.944 218.915,303.958 219.211 L 302.166 219.749 302.016 223.915 L 301.867 228.081 299.393 228.168 L 296.919 228.254 297.003 231.752 L 297.087 235.250 299.477 235.400 L 301.867 235.549 302.016 245.706 C 302.151 254.877,302.220 255.964,302.724 256.908 C 304.697 260.604,306.589 261.544,312.024 261.525 C 318.167 261.503,318.537 261.231,318.255 256.926 L 318.057 253.908 315.440 253.989 C 313.021 254.064,312.765 254.015,312.046 253.342 L 311.268 252.613 311.347 244.081 L 311.426 235.549 315.142 235.400 L 318.858 235.250 319.112 234.266 C 319.252 233.725,319.328 232.179,319.280 230.831 L 319.193 228.379 315.310 228.230 L 311.426 228.081 311.239 223.898 C 311.136 221.598,311.035 219.145,311.015 218.447 C 310.995 217.748,310.878 217.183,310.754 217.191 C 310.631 217.199,309.455 217.535,308.140 217.939 M174.757 239.134 L 174.757 260.792 179.238 260.792 L 183.719 260.792 183.719 247.349 C 183.719 239.955,183.834 233.906,183.973 233.906 C 184.113 233.906,184.819 234.660,185.542 235.582 C 186.264 236.504,187.259 237.766,187.752 238.385 C 188.245 239.005,190.380 241.757,192.497 244.501 C 196.613 249.837,196.991 250.177,197.731 249.227 C 201.186 244.791,202.235 243.484,205.285 239.808 C 206.220 238.680,207.697 236.824,208.568 235.683 C 209.438 234.541,210.253 233.607,210.378 233.607 C 210.503 233.607,210.623 239.287,210.645 246.229 C 210.667 253.170,210.701 259.253,210.720 259.746 L 210.754 260.642 215.310 260.725 L 219.866 260.807 219.866 239.291 L 219.866 217.774 215.981 217.774 L 212.095 217.774 210.915 219.343 C 210.265 220.205,209.085 221.785,208.293 222.853 C 206.127 225.771,201.863 231.346,201.666 231.516 C 201.571 231.598,200.620 232.836,199.552 234.267 C 198.484 235.697,197.447 236.874,197.247 236.881 C 197.047 236.888,193.842 232.827,190.125 227.857 C 181.620 216.483,182.748 217.476,178.325 217.476 L 174.757 217.476 174.757 239.134 M28.738 218.036 C 28.447 218.216,28.374 219.224,28.440 222.132 L 28.529 225.990 35.336 226.070 C 40.400 226.130,42.176 226.244,42.269 226.518 C 42.338 226.720,42.434 234.481,42.482 243.764 L 42.569 260.642 47.125 260.725 L 51.680 260.807 51.680 243.479 L 51.680 226.150 58.626 226.070 L 65.571 225.990 65.571 221.957 L 65.571 217.924 47.348 217.861 C 37.325 217.826,28.950 217.905,28.738 218.036 M378.193 227.329 C 375.835 227.638,373.701 228.660,372.189 230.205 L 370.874 231.548 370.724 229.665 L 370.575 227.782 366.393 227.782 L 362.211 227.782 362.133 244.287 L 362.056 260.792 366.669 260.792 L 371.281 260.792 371.376 250.261 L 371.471 239.731 372.306 238.312 C 373.496 236.287,374.916 235.622,378.398 235.459 C 381.652 235.306,381.442 235.591,381.690 230.978 C 381.918 226.720,382.020 226.827,378.193 227.329 M77.819 227.509 C 72.476 228.267,67.812 229.927,67.812 231.070 C 67.812 231.590,70.216 236.383,70.609 236.646 C 70.774 236.757,71.533 236.531,72.295 236.145 C 76.701 233.913,82.709 233.931,85.666 236.187 C 88.406 238.277,89.406 243.261,86.773 241.708 C 76.082 235.400,62.815 244.979,67.721 255.463 C 70.892 262.240,81.956 264.245,87.485 259.046 C 88.705 257.898,88.723 257.897,88.723 258.942 C 88.723 260.708,89.216 260.941,92.956 260.941 C 97.909 260.941,97.388 262.145,97.376 250.719 C 97.363 236.938,97.029 235.149,93.862 231.895 C 90.618 228.562,83.711 226.674,77.819 227.509 M114.563 227.617 C 108.297 228.655,104.503 233.087,104.939 238.860 C 105.301 243.635,107.651 245.687,115.198 247.813 C 121.576 249.610,123.167 251.153,121.133 253.570 C 119.341 255.700,115.525 255.451,110.315 252.863 L 107.103 251.267 106.625 252.071 C 102.864 258.399,102.834 258.048,107.297 260.016 C 119.205 265.270,132.766 258.810,130.559 248.934 C 129.620 244.733,127.342 243.119,118.820 240.618 C 113.942 239.186,112.718 238.050,113.825 235.980 C 114.988 233.808,120.493 234.027,125.142 236.431 C 125.679 236.709,126.278 236.875,126.473 236.800 C 127.007 236.596,129.723 231.244,129.539 230.763 C 128.794 228.823,119.310 226.830,114.563 227.617 M239.432 227.684 C 235.369 228.015,232.303 228.910,230.268 230.359 L 229.418 230.964 230.814 233.555 C 232.750 237.151,232.485 236.964,234.397 236.088 C 242.076 232.573,249.530 234.765,250.239 240.746 C 250.448 242.517,250.475 242.505,248.555 241.501 C 237.252 235.591,224.447 245.494,229.861 255.959 C 233.136 262.290,244.741 264.060,249.616 258.972 C 250.685 257.855,250.934 257.878,250.934 259.089 C 250.934 260.671,251.256 260.792,255.493 260.792 L 259.336 260.792 259.242 249.066 L 259.149 237.341 258.230 235.398 C 255.423 229.462,249.157 226.891,239.432 227.684 M276.483 227.632 C 270.237 228.761,266.977 232.303,266.996 237.939 C 267.007 240.955,267.410 242.219,268.905 243.921 C 270.369 245.590,271.647 246.142,279.606 248.545 C 287.008 250.781,283.911 256.691,276.388 254.688 C 274.785 254.261,271.773 252.824,270.278 251.771 C 269.215 251.023,269.246 250.995,267.240 254.525 C 265.193 258.126,265.193 258.126,268.332 259.583 C 279.729 264.874,291.873 260.884,292.388 251.680 C 292.734 245.511,290.478 243.402,280.358 240.436 C 275.540 239.023,274.162 236.534,277.301 234.911 C 279.409 233.820,286.261 235.037,287.687 236.755 C 288.351 237.555,288.717 237.213,290.325 234.287 C 292.146 230.975,292.137 230.892,289.843 229.643 C 286.755 227.961,280.157 226.968,276.483 227.632 M334.340 227.938 C 319.623 231.793,317.339 253.563,330.960 260.144 C 337.256 263.186,347.760 261.789,352.577 257.269 C 353.743 256.174,353.675 256.016,350.937 253.497 C 348.077 250.865,348.284 250.925,346.764 252.299 C 341.622 256.944,331.591 254.110,331.591 248.013 C 331.591 247.409,339.024 247.050,351.505 247.050 L 356.087 247.050 356.087 244.424 C 356.087 232.613,345.918 224.904,334.340 227.938 M342.192 235.013 C 344.265 236.054,346.391 238.862,346.603 240.837 L 346.677 241.524 339.244 241.604 L 331.811 241.683 332.008 240.452 C 332.774 235.661,337.964 232.890,342.192 235.013 M246.481 246.168 C 252.656 247.796,250.836 254.721,244.071 255.334 C 240.299 255.676,237.789 253.712,237.790 250.420 C 237.791 246.573,241.373 244.820,246.481 246.168 M84.456 246.334 C 87.520 247.360,88.661 248.775,88.132 250.891 C 86.588 257.072,75.878 256.848,75.878 250.635 C 75.878 246.669,79.714 244.746,84.456 246.334 " stroke="none" fill="#f5e6d1" fill-rule="evenodd"></path><path id="path2" d="M115.640 44.534 C 114.424 45.275,114.023 45.658,113.565 46.514 C 113.306 46.998,113.219 62.879,113.219 109.648 L 113.219 172.137 113.864 173.284 C 115.127 175.533,109.487 175.357,180.382 175.352 C 220.240 175.349,244.318 175.240,244.947 175.059 C 246.151 174.714,247.229 173.755,247.824 172.501 C 248.198 171.713,248.321 144.536,247.965 141.225 C 247.854 140.188,247.886 140.158,242.532 146.336 C 241.485 147.545,240.442 148.789,240.217 149.101 C 239.890 149.550,239.812 151.321,239.835 157.701 C 239.859 164.047,239.781 165.805,239.468 166.065 C 239.181 166.303,222.830 166.373,180.402 166.319 L 121.733 166.243 121.657 109.849 C 121.586 56.348,121.609 53.444,122.105 53.240 C 122.393 53.121,148.842 53.025,180.881 53.025 L 239.134 53.025 239.212 65.497 C 239.292 78.297,239.327 78.618,240.483 77.147 C 241.140 76.313,242.168 75.116,245.683 71.098 L 247.643 68.857 247.645 57.776 C 247.648 46.070,247.515 45.014,246.153 45.856 C 245.939 45.988,245.850 45.862,245.910 45.513 C 246.200 43.824,249.906 43.914,180.284 43.915 L 116.654 43.916 115.640 44.534 M202.850 78.806 C 202.445 79.085,201.437 80.007,200.609 80.856 C 186.600 95.213,166.536 115.392,166.119 115.544 C 165.991 115.590,164.981 114.649,163.874 113.453 C 162.766 112.256,160.225 109.585,158.227 107.516 C 156.228 105.448,153.824 102.927,152.883 101.915 C 150.329 99.166,147.218 99.485,144.904 102.735 C 143.484 104.730,143.913 105.560,149.106 110.856 C 150.974 112.760,154.922 116.796,157.879 119.825 C 166.303 128.451,166.680 128.556,171.390 123.614 C 176.570 118.179,182.141 112.434,188.840 105.618 C 212.553 81.491,210.400 84.075,209.006 81.412 C 207.606 78.738,204.719 77.516,202.850 78.806 " stroke="none" fill="#2fabd5" fill-rule="evenodd"></path><path id="path3" d="M292.606 39.409 C 290.784 39.675,288.776 40.465,287.379 41.467 C 286.217 42.299,281.105 47.434,281.105 47.769 C 281.105 48.368,303.718 70.202,304.338 70.202 C 304.748 70.202,309.906 64.783,310.618 63.605 C 316.757 53.439,304.971 37.607,292.606 39.409 M297.984 40.030 C 298.085 40.194,298.430 40.329,298.749 40.329 C 300.022 40.329,303.986 42.631,305.800 44.424 C 311.128 49.690,313.211 56.759,310.931 61.837 C 309.967 63.984,309.510 64.605,307.105 67.038 C 305.119 69.046,304.382 69.618,304.035 69.419 C 302.750 68.679,281.703 48.220,281.703 47.711 C 281.703 47.411,285.537 43.532,287.229 42.119 C 288.094 41.397,289.537 40.692,291.412 40.074 C 292.600 39.682,297.747 39.648,297.984 40.030 M198.894 43.538 C 200.257 43.594,202.408 43.594,203.674 43.538 C 204.939 43.482,203.824 43.436,201.195 43.437 C 198.566 43.437,197.531 43.483,198.894 43.538 M293.353 46.717 C 289.380 47.805,289.226 47.438,296.703 54.718 C 303.697 61.528,303.655 61.506,304.526 58.952 C 306.653 52.707,299.617 45.001,293.353 46.717 M298.764 47.814 C 302.032 49.481,304.406 53.090,304.406 56.392 C 304.406 58.181,303.713 60.469,303.225 60.290 C 302.592 60.057,290.951 48.578,291.046 48.280 C 291.469 46.948,296.475 46.646,298.764 47.814 M112.767 100.822 C 112.767 130.396,112.803 142.539,112.845 127.806 C 112.888 113.073,112.888 88.875,112.845 74.034 C 112.803 59.193,112.768 71.247,112.767 100.822 M248.016 48.096 C 248.016 48.671,248.077 48.906,248.152 48.618 C 248.227 48.331,248.227 47.860,248.152 47.573 C 248.077 47.285,248.016 47.521,248.016 48.096 M274.160 53.658 C 273.051 54.746,272.143 55.728,272.143 55.839 C 272.143 56.080,278.904 62.727,286.333 69.790 C 289.291 72.601,292.718 75.861,293.950 77.033 C 296.645 79.596,296.315 79.572,298.468 77.358 C 300.752 75.009,300.746 74.981,297.162 71.533 C 295.478 69.913,290.221 64.817,285.480 60.209 C 280.739 55.600,276.706 51.796,276.518 51.754 C 276.330 51.712,275.269 52.569,274.160 53.658 M289.612 64.847 C 297.658 72.660,299.328 74.427,299.328 75.127 C 299.328 75.697,296.878 78.574,296.405 78.560 C 296.094 78.551,286.447 69.364,275.773 58.912 L 272.633 55.838 274.548 53.906 L 276.462 51.975 280.203 55.659 C 282.260 57.686,286.494 61.821,289.612 64.847 M226.214 53.397 C 228.473 53.448,232.170 53.448,234.429 53.397 C 236.688 53.347,234.839 53.305,230.321 53.305 C 225.803 53.305,223.954 53.347,226.214 53.397 M238.757 66.226 C 238.683 79.211,238.744 79.911,239.839 78.677 C 240.112 78.370,240.206 78.219,240.048 78.342 C 239.025 79.141,238.992 78.793,238.910 66.094 L 238.828 53.622 238.757 66.226 M122.028 110.381 C 122.028 140.777,122.063 153.167,122.106 137.915 C 122.149 122.663,122.149 97.794,122.106 82.650 C 122.063 67.506,122.028 79.985,122.028 110.381 M268.051 61.357 C 267.830 61.741,261.804 68.071,251.817 78.411 C 249.592 80.714,246.155 84.279,244.180 86.333 C 239.906 90.778,232.678 98.248,230.172 100.809 C 226.252 104.816,221.183 110.107,220.850 110.541 C 220.655 110.793,219.547 114.422,218.387 118.606 C 216.122 126.775,215.748 128.110,215.338 129.500 C 211.833 141.369,211.719 142.024,212.934 143.325 C 214.285 144.772,215.550 144.617,220.911 142.349 C 221.404 142.141,226.378 140.196,231.964 138.027 C 248.043 131.786,246.439 132.556,247.472 130.577 C 248.237 129.113,247.518 129.873,273.366 103.217 C 290.613 85.431,292.158 83.805,292.158 83.442 C 292.158 83.074,287.557 78.865,287.155 78.865 C 287.002 78.865,285.688 80.108,284.234 81.628 C 282.780 83.148,279.095 86.955,276.045 90.087 C 272.996 93.220,268.627 97.723,266.337 100.095 C 264.047 102.466,259.944 106.692,257.220 109.485 C 254.495 112.278,249.793 117.152,246.771 120.317 C 241.375 125.967,241.242 126.081,239.352 126.665 C 236.381 127.582,236.290 127.551,236.505 125.691 C 236.878 122.467,236.493 122.949,248.508 110.673 C 251.567 107.548,256.002 102.977,258.363 100.516 C 262.156 96.562,267.171 91.424,279.663 78.692 L 283.203 75.084 280.632 72.425 L 278.061 69.766 274.452 73.494 C 272.467 75.544,268.892 79.238,266.509 81.703 C 264.126 84.167,259.882 88.539,257.078 91.418 C 252.750 95.861,243.908 105.033,235.146 114.170 C 233.138 116.264,232.333 116.816,229.116 118.308 C 228.865 118.424,228.231 118.614,227.709 118.729 L 226.759 118.937 226.946 117.348 C 227.304 114.298,227.230 114.395,236.408 104.854 C 240.523 100.578,255.146 85.501,262.883 77.559 C 265.429 74.945,267.782 72.510,268.111 72.149 C 268.439 71.787,269.915 70.260,271.390 68.756 L 274.072 66.020 271.546 63.480 C 268.992 60.913,268.483 60.604,268.051 61.357 M271.248 63.779 L 273.474 66.020 271.060 68.484 C 269.732 69.840,267.804 71.822,266.775 72.890 C 260.522 79.382,250.249 89.986,245.090 95.275 C 241.794 98.654,237.877 102.696,236.385 104.257 C 234.892 105.818,232.571 108.237,231.225 109.634 C 229.879 111.031,228.559 112.543,228.290 112.995 C 228.022 113.447,227.713 113.816,227.604 113.816 C 227.051 113.816,225.938 118.813,226.390 119.266 C 227.424 120.300,233.011 117.069,236.410 113.471 C 237.706 112.100,240.260 109.430,242.086 107.537 C 243.913 105.645,248.364 101.018,251.979 97.255 C 255.594 93.493,261.328 87.580,264.722 84.117 C 268.116 80.653,271.275 77.411,271.742 76.911 C 272.209 76.412,273.586 74.933,274.801 73.625 C 278.162 70.007,277.760 70.071,280.382 72.735 L 282.627 75.017 279.401 78.323 C 277.628 80.141,274.765 83.072,273.040 84.836 C 259.010 99.179,242.409 116.304,240.312 118.596 C 239.336 119.664,238.166 120.860,237.713 121.254 C 236.259 122.521,235.269 127.857,236.488 127.857 C 238.826 127.857,242.186 126.076,244.000 123.877 C 244.540 123.222,248.458 119.111,252.706 114.741 C 256.954 110.371,260.862 106.326,261.392 105.751 C 261.921 105.176,266.619 100.336,271.832 94.996 C 277.045 89.656,282.642 83.909,284.270 82.223 L 287.229 79.159 289.395 81.191 C 290.586 82.308,291.558 83.350,291.556 83.508 C 291.551 83.781,289.543 85.909,280.704 95.011 C 271.363 104.631,261.928 114.395,259.298 117.164 C 257.737 118.808,254.481 122.179,252.062 124.655 C 249.396 127.384,247.423 129.669,247.054 130.455 C 246.430 131.781,246.315 131.859,242.569 133.467 C 241.830 133.784,240.840 134.137,240.370 134.250 C 239.900 134.364,238.892 134.733,238.130 135.070 C 236.405 135.833,236.193 135.919,232.711 137.280 C 231.150 137.890,229.470 138.553,228.977 138.755 C 228.484 138.956,227.274 139.422,226.288 139.791 C 224.332 140.523,223.826 140.722,222.255 141.375 C 221.680 141.614,220.403 142.109,219.417 142.475 C 218.432 142.840,217.418 143.247,217.166 143.378 C 212.718 145.680,211.708 142.225,214.464 134.130 C 214.603 133.719,214.883 132.778,215.086 132.039 C 215.288 131.299,215.559 130.358,215.687 129.948 C 215.923 129.195,216.637 126.628,217.225 124.421 C 217.400 123.764,217.653 122.957,217.786 122.629 C 217.919 122.300,218.094 121.695,218.175 121.285 C 218.256 120.874,218.684 119.193,219.126 117.550 C 219.568 115.907,219.998 114.192,220.081 113.738 C 220.165 113.284,220.352 112.839,220.497 112.749 C 220.643 112.660,220.766 112.292,220.771 111.932 C 220.784 111.029,220.915 110.878,227.404 104.266 C 230.569 101.041,235.024 96.459,237.303 94.085 C 239.582 91.711,243.413 87.748,245.816 85.278 C 248.220 82.809,251.598 79.308,253.323 77.500 C 255.049 75.691,257.939 72.662,259.746 70.769 C 261.553 68.875,264.242 66.033,265.721 64.453 C 268.960 60.990,268.529 61.042,271.248 63.779 M204.108 77.876 C 204.395 77.951,204.866 77.951,205.153 77.876 C 205.441 77.801,205.205 77.739,204.630 77.739 C 204.055 77.739,203.820 77.801,204.108 77.876 M197.457 83.271 L 192.830 87.976 197.535 83.349 C 201.906 79.051,202.376 78.566,202.162 78.566 C 202.119 78.566,200.002 80.683,197.457 83.271 M207.319 78.660 C 207.319 78.711,207.756 79.148,208.290 79.630 L 209.261 80.508 208.383 79.537 C 207.565 78.632,207.319 78.429,207.319 78.660 M202.833 91.934 L 199.104 95.743 202.913 92.013 C 206.451 88.549,206.857 88.125,206.642 88.125 C 206.599 88.125,204.885 89.839,202.833 91.934 M182.823 98.133 C 182.097 98.872,181.571 99.477,181.653 99.477 C 181.735 99.477,182.396 98.872,183.122 98.133 C 183.847 97.394,184.374 96.789,184.292 96.789 C 184.210 96.789,183.549 97.394,182.823 98.133 M179.081 101.942 L 176.998 104.108 179.164 102.024 C 180.355 100.879,181.329 99.904,181.329 99.859 C 181.329 99.640,181.016 99.930,179.081 101.942 M157.879 106.647 C 159.351 108.125,160.622 109.335,160.704 109.335 C 160.787 109.335,159.650 108.125,158.178 106.647 C 156.706 105.168,155.434 103.958,155.352 103.958 C 155.270 103.958,156.407 105.168,157.879 106.647 M189.395 105.601 C 188.669 106.341,188.143 106.945,188.225 106.945 C 188.307 106.945,188.968 106.341,189.694 105.601 C 190.419 104.862,190.946 104.257,190.864 104.257 C 190.782 104.257,190.121 104.862,189.395 105.601 M143.988 105.944 C 143.988 106.124,144.492 106.801,145.108 107.447 C 145.724 108.094,145.947 108.280,145.602 107.859 C 145.258 107.439,144.754 106.762,144.482 106.356 C 144.210 105.950,143.988 105.765,143.988 105.944 M150.112 112.621 C 152.079 114.593,153.755 116.206,153.837 116.206 C 153.919 116.206,152.377 114.593,150.411 112.621 C 148.444 110.650,146.768 109.037,146.686 109.037 C 146.604 109.037,148.146 110.650,150.112 112.621 M183.264 111.800 L 180.881 114.264 183.346 111.882 C 184.701 110.571,185.810 109.462,185.810 109.417 C 185.810 109.199,185.477 109.511,183.264 111.800 M164.152 113.219 C 165.128 114.205,165.993 115.011,166.075 115.011 C 166.158 115.011,165.427 114.205,164.451 113.219 C 163.476 112.233,162.610 111.426,162.528 111.426 C 162.446 111.426,163.177 112.233,164.152 113.219 M168.022 113.294 L 166.841 114.563 168.111 113.382 C 169.291 112.284,169.517 112.024,169.291 112.024 C 169.243 112.024,168.671 112.595,168.022 113.294 M158.028 120.781 C 158.028 120.832,158.465 121.269,158.999 121.751 L 159.970 122.629 159.093 121.658 C 158.275 120.753,158.028 120.550,158.028 120.781 M173.546 121.807 L 172.517 122.928 173.637 121.898 C 174.680 120.940,174.895 120.687,174.667 120.687 C 174.617 120.687,174.112 121.191,173.546 121.807 M161.302 124.048 C 162.540 125.367,162.808 125.604,162.808 125.380 C 162.808 125.332,162.170 124.693,161.389 123.961 L 159.970 122.629 161.302 124.048 M170.260 125.392 L 169.231 126.512 170.351 125.483 C 171.394 124.525,171.609 124.272,171.380 124.272 C 171.331 124.272,170.826 124.776,170.260 125.392 M247.482 139.971 C 246.923 140.418,246.926 140.424,247.573 140.111 C 248.219 139.798,248.247 139.841,248.297 141.214 L 248.349 142.644 248.466 141.334 C 248.604 139.776,248.282 139.330,247.482 139.971 M245.687 141.972 L 244.810 142.942 245.780 142.065 C 246.314 141.583,246.751 141.146,246.751 141.094 C 246.751 140.863,246.505 141.067,245.687 141.972 M112.746 166.692 C 112.746 169.895,112.790 171.206,112.844 169.604 C 112.898 168.002,112.898 165.381,112.844 163.779 C 112.790 162.177,112.746 163.488,112.746 166.692 M166.173 166.010 C 166.627 166.078,167.299 166.077,167.667 166.006 C 168.034 165.935,167.662 165.879,166.841 165.881 C 166.019 165.883,165.719 165.941,166.173 166.010 M169.156 166.001 C 169.444 166.076,169.914 166.076,170.202 166.001 C 170.489 165.926,170.254 165.865,169.679 165.865 C 169.104 165.865,168.869 165.926,169.156 166.001 M229.216 166.018 C 230.827 166.072,233.381 166.072,234.892 166.018 C 236.404 165.964,235.086 165.920,231.964 165.920 C 228.842 165.920,227.606 165.964,229.216 166.018 M134.825 175.877 C 144.819 175.921,161.085 175.921,170.972 175.877 C 180.858 175.834,172.681 175.798,152.801 175.798 C 132.920 175.798,124.831 175.834,134.825 175.877 M208.290 175.877 C 214.821 175.922,225.508 175.922,232.039 175.877 C 238.570 175.833,233.226 175.796,220.164 175.796 C 207.102 175.796,201.759 175.833,208.290 175.877 M141.299 215.041 L 137.267 216.430 137.267 238.835 L 137.267 261.240 141.779 261.322 C 147.443 261.425,146.945 262.109,147.044 254.093 L 147.125 247.591 149.581 250.831 C 150.932 252.612,152.411 254.525,152.867 255.081 C 154.108 256.592,155.382 258.177,156.385 259.456 C 158.024 261.546,157.641 261.438,163.152 261.351 C 168.767 261.263,169.156 261.170,168.484 260.080 C 168.095 259.449,165.484 256.161,163.949 254.369 C 160.352 250.170,155.342 243.931,155.351 243.661 C 155.357 243.471,156.108 242.509,157.018 241.524 C 157.929 240.538,159.165 239.126,159.765 238.387 C 160.865 237.032,164.025 233.287,164.302 233.010 C 165.510 231.801,168.484 228.207,168.484 227.955 C 168.484 227.716,166.918 227.643,163.049 227.701 L 157.614 227.782 154.677 231.367 C 153.062 233.338,150.975 235.892,150.039 237.043 C 149.103 238.193,148.098 239.394,147.806 239.713 C 147.513 240.031,147.243 240.435,147.204 240.609 C 147.165 240.783,147.065 234.810,146.980 227.334 L 146.826 213.742 146.079 213.696 C 145.668 213.671,143.518 214.276,141.299 215.041 M146.452 219.642 C 146.542 222.804,146.544 228.921,146.456 233.234 C 146.276 242.039,146.327 242.230,148.210 239.806 C 148.752 239.108,150.486 236.990,152.063 235.101 C 153.639 233.211,155.579 230.825,156.373 229.798 L 157.818 227.931 163.023 227.931 L 168.229 227.931 167.385 228.936 C 166.922 229.488,165.332 231.343,163.854 233.059 C 162.375 234.775,160.493 236.976,159.671 237.950 C 157.647 240.352,155.896 242.320,155.265 242.903 C 154.520 243.591,154.421 243.418,158.103 247.851 C 159.951 250.077,161.934 252.481,162.509 253.195 C 163.084 253.908,164.664 255.841,166.019 257.490 C 167.375 259.138,168.484 260.556,168.484 260.639 C 168.484 260.723,166.091 260.792,163.166 260.792 L 157.847 260.792 153.564 255.405 C 151.209 252.442,148.755 249.283,148.112 248.384 C 146.472 246.095,146.498 246.005,146.626 253.617 L 146.741 260.483 145.943 260.787 C 145.003 261.144,138.334 261.190,137.787 260.843 C 137.491 260.654,137.428 256.019,137.489 238.667 L 137.565 216.729 141.598 215.339 C 143.816 214.575,145.779 213.936,145.959 213.920 C 146.182 213.900,146.340 215.737,146.452 219.642 M309.485 217.128 C 309.238 217.263,307.692 217.744,306.049 218.198 C 301.222 219.532,301.718 218.916,301.718 223.581 L 301.718 227.608 299.253 227.695 L 296.789 227.782 296.789 231.665 L 296.789 235.549 299.178 235.698 L 301.568 235.848 301.718 245.855 C 301.910 258.760,302.337 259.840,307.961 261.658 C 310.515 262.484,317.484 261.802,318.456 260.631 C 318.903 260.092,318.734 254.088,318.257 253.612 C 318.032 253.387,317.303 253.372,315.876 253.563 C 311.600 254.136,311.576 254.081,311.576 243.745 L 311.576 235.698 315.454 235.698 C 320.040 235.698,319.711 236.068,319.579 231.068 L 319.492 227.782 315.541 227.699 L 311.590 227.615 311.508 222.321 L 311.426 217.028 310.680 216.955 C 310.269 216.915,309.731 216.993,309.485 217.128 M174.567 217.550 C 174.416 217.763,174.369 227.254,174.455 239.582 L 174.608 261.240 179.143 261.295 C 182.507 261.335,183.760 261.251,183.995 260.969 C 184.203 260.718,184.337 256.188,184.388 247.649 L 184.466 234.709 187.453 238.554 C 189.096 240.668,190.844 242.928,191.337 243.575 C 191.830 244.222,192.569 245.184,192.980 245.711 C 193.391 246.239,194.302 247.428,195.006 248.354 C 196.976 250.947,196.712 251.133,203.883 242.087 L 210.157 234.174 210.235 247.381 C 210.289 256.675,210.413 260.709,210.651 260.996 C 210.915 261.315,211.976 261.386,215.502 261.322 L 220.015 261.240 220.092 239.358 L 220.168 217.476 216.033 217.476 L 211.897 217.476 208.942 221.434 C 207.316 223.611,205.824 225.594,205.625 225.840 C 205.093 226.499,201.164 231.609,199.135 234.281 C 197.030 237.053,197.578 237.319,193.160 231.378 C 191.322 228.907,189.555 226.532,189.233 226.101 C 186.658 222.646,183.372 218.403,182.844 217.849 C 182.082 217.051,175.098 216.799,174.567 217.550 M311.015 218.447 C 311.035 219.145,311.136 221.598,311.239 223.898 L 311.426 228.081 315.310 228.230 L 319.193 228.379 319.280 230.831 C 319.328 232.179,319.252 233.725,319.112 234.266 L 318.858 235.250 315.142 235.400 L 311.426 235.549 311.347 244.081 L 311.268 252.613 312.046 253.342 C 312.765 254.015,313.021 254.064,315.440 253.989 L 318.057 253.908 318.255 256.926 C 318.537 261.231,318.167 261.503,312.024 261.525 C 306.589 261.544,304.697 260.604,302.724 256.908 C 302.220 255.964,302.151 254.877,302.016 245.706 L 301.867 235.549 299.477 235.400 L 297.087 235.250 297.003 231.752 L 296.919 228.254 299.393 228.168 L 301.867 228.081 302.016 223.915 L 302.166 219.749 303.958 219.211 C 304.944 218.915,306.826 218.343,308.140 217.939 C 309.455 217.535,310.631 217.199,310.754 217.191 C 310.878 217.183,310.995 217.748,311.015 218.447 M28.212 217.864 C 28.130 218.078,28.100 220.061,28.146 222.270 L 28.230 226.288 35.173 226.368 L 42.116 226.449 42.193 243.844 L 42.270 261.240 46.453 261.326 C 48.753 261.373,50.937 261.337,51.307 261.245 L 51.979 261.079 51.979 243.758 L 51.979 226.438 58.527 226.438 C 66.867 226.438,66.019 226.965,66.019 221.775 L 66.019 217.476 47.190 217.476 C 32.012 217.476,28.332 217.551,28.212 217.864 M182.630 218.148 C 183.036 218.518,186.408 222.886,190.125 227.857 C 193.842 232.827,197.047 236.888,197.247 236.881 C 197.447 236.874,198.484 235.697,199.552 234.267 C 200.620 232.836,201.571 231.598,201.666 231.516 C 201.863 231.346,206.127 225.771,208.293 222.853 C 209.085 221.785,210.265 220.205,210.915 219.343 L 212.095 217.774 215.981 217.774 L 219.866 217.774 219.866 239.291 L 219.866 260.807 215.310 260.725 L 210.754 260.642 210.720 259.746 C 210.701 259.253,210.667 253.170,210.645 246.229 C 210.623 239.287,210.503 233.607,210.378 233.607 C 210.253 233.607,209.438 234.541,208.568 235.683 C 207.697 236.824,206.220 238.680,205.285 239.808 C 202.235 243.484,201.186 244.791,197.731 249.227 C 196.991 250.177,196.613 249.837,192.497 244.501 C 190.380 241.757,188.245 239.005,187.752 238.385 C 187.259 237.766,186.264 236.504,185.542 235.582 C 184.819 234.660,184.113 233.906,183.973 233.906 C 183.834 233.906,183.719 239.955,183.719 247.349 L 183.719 260.792 179.238 260.792 L 174.757 260.792 174.757 239.134 L 174.757 217.476 178.325 217.476 C 181.608 217.476,181.952 217.529,182.630 218.148 M65.571 221.957 L 65.571 225.990 58.626 226.070 L 51.680 226.150 51.680 243.479 L 51.680 260.807 47.125 260.725 L 42.569 260.642 42.482 243.764 C 42.434 234.481,42.338 226.720,42.269 226.518 C 42.176 226.244,40.400 226.130,35.336 226.070 L 28.529 225.990 28.440 222.132 C 28.374 219.224,28.447 218.216,28.738 218.036 C 28.950 217.905,37.325 217.826,47.348 217.861 L 65.571 217.924 65.571 221.957 M378.043 227.015 C 375.842 227.246,373.916 228.095,372.446 229.481 C 371.172 230.682,371.023 230.644,371.023 229.113 C 371.023 227.416,370.706 227.306,366.053 227.400 L 361.912 227.483 361.763 244.063 C 361.635 258.258,361.675 260.696,362.044 261.016 C 362.576 261.477,370.482 261.540,371.325 261.089 C 371.857 260.804,371.885 260.264,371.877 250.509 C 371.866 236.655,372.333 235.698,379.113 235.698 C 381.869 235.698,381.660 236.025,382.062 231.092 C 382.369 227.322,382.332 227.032,381.536 227.040 C 381.124 227.043,381.109 227.094,381.451 227.311 C 381.791 227.526,381.837 228.232,381.690 230.978 C 381.442 235.591,381.652 235.306,378.398 235.459 C 374.916 235.622,373.496 236.287,372.306 238.312 L 371.471 239.731 371.376 250.261 L 371.281 260.792 366.669 260.792 L 362.056 260.792 362.133 244.287 L 362.211 227.782 366.393 227.782 L 370.575 227.782 370.665 229.678 L 370.754 231.574 372.315 230.098 C 373.999 228.505,376.515 227.355,378.428 227.304 C 379.038 227.288,379.873 227.167,380.284 227.035 C 381.191 226.744,380.672 226.740,378.043 227.015 M77.040 227.167 C 76.967 227.240,76.097 227.430,75.106 227.589 C 73.029 227.924,68.746 229.505,67.766 230.299 L 67.098 230.839 68.688 234.016 C 70.463 237.561,70.318 237.466,72.412 236.461 C 79.273 233.167,86.550 234.920,87.750 240.157 C 88.213 242.177,88.259 242.148,86.282 241.077 C 75.271 235.114,62.381 245.155,67.454 255.745 C 70.656 262.432,81.040 264.497,87.155 259.664 C 88.394 258.685,88.424 258.677,88.429 259.353 C 88.440 260.999,89.430 261.389,93.596 261.389 C 98.164 261.389,97.751 262.654,97.611 249.084 C 97.456 234.038,96.765 232.122,90.366 228.978 C 87.295 227.470,78.001 226.207,77.040 227.167 M114.348 227.281 C 114.065 227.393,115.746 227.491,118.082 227.498 C 120.419 227.505,121.994 227.417,121.583 227.303 C 120.614 227.033,115.016 227.016,114.348 227.281 M238.387 227.327 C 237.949 227.463,239.377 227.564,241.833 227.571 C 250.823 227.596,255.624 229.888,258.230 235.398 L 259.149 237.341 259.242 249.066 L 259.336 260.792 255.493 260.792 C 251.256 260.792,250.934 260.671,250.934 259.089 C 250.934 257.878,250.685 257.855,249.616 258.972 C 248.531 260.103,245.745 261.340,243.559 261.660 C 241.834 261.912,241.831 261.914,243.167 261.946 C 245.127 261.993,247.873 260.966,249.438 259.601 L 250.184 258.952 250.343 259.648 C 250.679 261.113,258.268 262.220,259.504 260.984 C 259.931 260.557,259.568 238.398,259.109 236.852 C 257.612 231.812,253.561 228.568,247.421 227.494 C 244.701 227.018,239.678 226.925,238.387 227.327 M275.579 227.404 C 269.804 228.821,266.552 232.560,266.491 237.853 C 266.425 243.549,269.041 245.957,277.969 248.418 C 281.849 249.488,283.494 250.521,283.495 251.890 C 283.497 254.463,280.056 255.519,276.003 254.189 C 274.196 253.595,273.222 253.120,270.573 251.541 C 269.264 250.761,268.859 250.845,268.262 252.018 C 268.022 252.489,267.510 253.393,267.124 254.025 C 264.514 258.304,264.491 258.099,267.749 259.700 C 279.734 265.590,292.756 261.048,292.756 250.977 C 292.756 245.238,290.097 242.774,281.255 240.318 C 277.993 239.413,276.627 238.732,276.289 237.843 C 274.960 234.346,282.901 233.734,287.493 236.979 C 288.581 237.748,289.042 237.486,290.057 235.523 C 290.474 234.716,291.118 233.543,291.487 232.918 C 292.658 230.934,292.395 230.438,289.428 229.022 C 285.893 227.336,279.095 226.541,275.579 227.404 M333.532 227.758 C 317.379 232.968,317.628 257.331,333.877 261.563 C 340.566 263.305,350.362 260.865,353.528 256.668 L 354.077 255.941 351.721 253.701 C 348.100 250.259,348.227 250.309,346.734 251.770 C 341.964 256.439,333.532 254.553,332.081 248.493 L 331.890 247.695 343.964 247.596 C 350.604 247.542,356.134 247.402,356.251 247.284 C 356.624 246.911,356.403 241.473,355.944 239.709 C 353.414 229.997,343.305 224.606,333.532 227.758 M87.011 228.096 C 92.935 229.612,96.355 233.299,97.109 238.984 C 97.251 240.052,97.371 245.333,97.376 250.719 C 97.388 262.145,97.909 260.941,92.956 260.941 C 89.216 260.941,88.723 260.708,88.723 258.942 C 88.723 257.897,88.705 257.898,87.485 259.046 C 81.956 264.245,70.892 262.240,67.721 255.463 C 62.815 244.979,76.082 235.400,86.773 241.708 C 89.406 243.261,88.406 238.277,85.666 236.187 C 82.709 233.931,76.701 233.913,72.295 236.145 C 71.533 236.531,70.774 236.757,70.609 236.646 C 70.216 236.383,67.812 231.590,67.812 231.070 C 67.812 229.927,72.476 228.267,77.819 227.509 C 79.543 227.265,85.166 227.623,87.011 228.096 M286.002 228.222 C 288.440 228.845,291.169 230.154,291.642 230.927 C 291.846 231.259,291.488 232.172,290.325 234.287 C 288.717 237.213,288.351 237.555,287.687 236.755 C 286.261 235.037,279.409 233.820,277.301 234.911 C 274.162 236.534,275.540 239.023,280.358 240.436 C 290.478 243.402,292.734 245.511,292.388 251.680 C 291.873 260.884,279.729 264.874,268.332 259.583 C 265.193 258.126,265.193 258.126,267.240 254.525 C 269.246 250.995,269.215 251.023,270.278 251.771 C 271.773 252.824,274.785 254.261,276.388 254.688 C 283.911 256.691,287.008 250.781,279.606 248.545 C 271.647 246.142,270.369 245.590,268.905 243.921 C 266.094 240.721,266.229 234.746,269.189 231.375 C 272.423 227.692,279.061 226.447,286.002 228.222 M343.701 227.788 C 351.226 229.710,356.087 236.238,356.087 244.424 L 356.087 247.050 351.505 247.050 C 339.024 247.050,331.591 247.409,331.591 248.013 C 331.591 254.110,341.622 256.944,346.764 252.299 C 348.284 250.925,348.077 250.865,350.937 253.497 C 354.063 256.374,354.027 256.659,350.238 258.962 C 340.987 264.584,327.534 261.571,323.732 253.025 C 317.362 238.707,328.977 224.029,343.701 227.788 M110.285 228.692 C 106.375 230.648,104.556 233.645,104.556 238.131 C 104.556 243.816,107.114 246.049,116.505 248.562 C 120.642 249.669,122.129 251.103,121.135 253.026 C 119.788 255.631,114.683 255.034,108.624 251.564 C 107.109 250.696,106.937 250.795,105.467 253.376 C 104.781 254.579,103.943 256.008,103.604 256.551 L 102.988 257.538 103.691 258.286 C 107.356 262.187,119.301 263.289,125.287 260.278 C 131.286 257.260,133.052 248.827,128.566 244.621 C 126.574 242.754,125.139 242.138,117.401 239.825 C 113.963 238.798,112.911 237.251,114.582 235.681 C 116.202 234.159,120.499 234.557,124.615 236.609 C 125.957 237.278,126.393 237.379,126.744 237.097 C 127.516 236.478,129.996 231.561,129.894 230.849 C 129.748 229.818,125.055 227.608,123.098 227.649 C 122.671 227.657,123.325 227.964,124.571 228.339 C 129.874 229.935,130.140 230.337,128.264 233.922 C 126.645 237.015,126.498 237.133,125.142 236.431 C 120.493 234.027,114.988 233.808,113.825 235.980 C 112.718 238.050,113.942 239.186,118.820 240.618 C 127.342 243.119,129.620 244.733,130.559 248.934 C 132.766 258.810,119.205 265.270,107.297 260.016 C 102.834 258.048,102.864 258.399,106.625 252.071 L 107.103 251.267 110.315 252.863 C 115.525 255.451,119.341 255.700,121.133 253.570 C 123.167 251.153,121.576 249.610,115.198 247.813 C 107.651 245.687,105.301 243.635,104.939 238.860 C 104.565 233.915,107.021 230.233,111.968 228.320 C 112.903 227.959,113.383 227.656,113.035 227.648 C 112.687 227.639,111.450 228.109,110.285 228.692 M235.101 227.931 C 234.538 228.295,235.757 228.295,236.893 227.931 C 237.577 227.712,237.552 227.690,236.594 227.667 C 236.019 227.653,235.347 227.772,235.101 227.931 M232.550 228.769 C 228.791 230.346,228.740 230.472,230.512 233.824 C 232.452 237.494,232.400 237.453,234.104 236.602 C 240.963 233.177,248.618 234.786,249.711 239.883 C 250.138 241.871,250.196 241.841,247.919 240.819 C 245.514 239.740,241.695 239.114,240.030 239.525 C 238.941 239.794,239.060 239.823,241.374 239.854 C 244.264 239.892,246.427 240.388,248.555 241.501 C 250.475 242.505,250.448 242.517,250.239 240.746 C 249.530 234.765,242.076 232.573,234.397 236.088 C 232.485 236.964,232.750 237.151,230.814 233.555 L 229.418 230.964 230.268 230.359 C 230.735 230.027,231.845 229.468,232.735 229.117 C 233.626 228.766,234.410 228.423,234.478 228.354 C 234.769 228.064,233.666 228.301,232.550 228.769 M337.565 234.473 C 334.656 235.091,332.494 237.418,332.008 240.452 L 331.811 241.683 339.244 241.604 L 346.677 241.524 346.603 240.837 C 346.183 236.923,341.514 233.635,337.565 234.473 M342.569 235.707 C 344.237 236.664,345.328 238.041,346.054 240.105 L 346.501 241.374 339.307 241.374 L 332.114 241.374 332.298 240.454 C 333.259 235.646,338.355 233.290,342.569 235.707 M235.831 240.434 C 230.675 242.527,228.431 245.660,228.419 250.784 C 228.403 257.392,232.474 261.569,239.432 262.084 C 241.508 262.237,241.511 262.236,239.881 261.956 C 232.763 260.732,229.686 258.091,228.811 252.454 C 227.906 246.620,231.163 242.062,237.491 240.307 C 238.617 239.994,238.690 239.935,237.939 239.938 C 237.446 239.941,236.497 240.164,235.831 240.434 M241.411 245.842 C 238.505 246.568,236.999 249.696,238.199 252.511 C 240.571 258.078,251.677 254.824,250.213 248.991 C 249.695 246.928,244.499 245.069,241.411 245.842 M78.263 246.408 C 74.656 248.325,75.027 253.566,78.865 254.903 C 84.847 256.987,91.388 250.958,86.852 247.541 C 84.643 245.877,80.332 245.309,78.263 246.408 M246.683 246.645 C 252.592 248.486,250.151 254.820,243.516 254.864 C 239.643 254.889,238.259 253.725,238.245 250.427 C 238.229 246.549,241.570 245.052,246.683 246.645 M85.148 246.934 C 90.327 249.436,87.804 254.817,81.453 254.817 C 77.942 254.817,76.546 253.832,76.270 251.162 C 75.997 248.516,76.752 247.375,79.462 246.334 C 80.275 246.022,84.094 246.425,85.148 246.934 " stroke="none" fill="#5a6c73" fill-rule="evenodd"></path><path id="path4" d="M115.907 43.949 C 114.939 44.335,113.528 45.674,113.198 46.521 C 113.056 46.888,112.924 75.275,112.905 109.782 C 112.866 180.041,112.653 173.401,115.000 174.982 L 116.002 175.657 180.704 175.581 L 245.407 175.504 246.382 174.808 C 247.352 174.117,248.438 172.461,248.126 172.149 C 248.036 172.059,247.839 172.307,247.688 172.699 C 247.298 173.710,246.121 174.723,244.947 175.059 C 244.318 175.240,220.240 175.349,180.382 175.352 C 109.487 175.357,115.127 175.533,113.864 173.284 L 113.219 172.137 113.219 109.648 C 113.219 62.879,113.306 46.998,113.565 46.514 C 114.023 45.658,114.424 45.275,115.640 44.534 L 116.654 43.916 180.284 43.915 C 249.906 43.914,246.200 43.824,245.910 45.513 C 245.850 45.862,245.939 45.988,246.153 45.856 C 247.515 45.014,247.648 46.070,247.645 57.776 L 247.643 68.857 245.683 71.098 C 242.168 75.116,241.140 76.313,240.483 77.147 C 239.327 78.618,239.292 78.297,239.212 65.497 L 239.134 53.025 180.881 53.025 C 148.842 53.025,122.393 53.121,122.105 53.240 C 121.609 53.444,121.586 56.348,121.657 109.849 L 121.733 166.243 180.402 166.319 C 222.830 166.373,239.181 166.303,239.468 166.065 C 239.781 165.805,239.859 164.047,239.835 157.701 C 239.812 151.321,239.890 149.550,240.217 149.101 C 240.442 148.789,241.485 147.545,242.532 146.336 C 247.885 140.159,247.855 140.187,247.964 141.225 C 247.994 141.512,248.106 148.536,248.213 156.833 L 248.408 171.919 248.446 157.431 C 248.467 149.462,248.395 142.203,248.284 141.299 L 248.084 139.656 247.078 140.702 C 246.524 141.277,244.852 143.159,243.362 144.884 C 241.871 146.609,240.543 148.067,240.409 148.123 C 239.451 148.524,239.283 149.972,239.283 157.832 C 239.283 164.647,239.220 165.756,238.826 165.907 C 238.575 166.003,212.230 166.086,180.281 166.091 L 122.194 166.100 122.031 165.425 C 121.941 165.054,121.905 139.746,121.950 109.186 L 122.031 53.622 180.134 53.455 C 215.913 53.351,238.381 53.394,238.611 53.566 C 238.899 53.781,238.984 56.669,238.984 66.227 C 238.984 76.965,239.043 78.597,239.423 78.513 C 239.665 78.460,241.715 76.266,243.979 73.637 L 248.096 68.857 248.191 60.194 C 248.340 46.735,248.122 45.544,245.228 44.047 C 244.199 43.515,117.241 43.419,115.907 43.949 M192.084 88.976 C 186.087 95.038,177.861 103.376,173.805 107.504 C 169.748 111.633,166.312 115.011,166.169 115.011 C 166.025 115.011,162.757 111.706,158.906 107.666 C 150.309 98.646,150.197 98.578,147.061 100.376 C 144.339 101.937,143.256 104.492,144.513 106.385 C 144.952 107.046,161.203 123.891,163.373 125.935 C 165.585 128.017,168.205 127.511,171.078 124.447 C 174.728 120.555,181.333 113.777,195.202 99.694 C 202.770 92.008,209.205 85.287,209.502 84.757 C 211.022 82.048,208.033 77.978,204.511 77.962 L 202.987 77.954 192.084 88.976 M206.958 79.079 C 210.518 81.388,210.398 83.549,206.484 87.606 C 203.585 90.610,202.073 92.154,188.840 105.618 C 182.141 112.434,176.570 118.179,171.390 123.614 C 166.680 128.556,166.303 128.451,157.879 119.825 C 154.922 116.796,150.974 112.760,149.106 110.856 C 143.913 105.560,143.484 104.730,144.904 102.735 C 147.218 99.485,150.329 99.166,152.883 101.915 C 153.824 102.927,156.228 105.448,158.227 107.516 C 160.225 109.585,162.766 112.256,163.874 113.453 C 164.981 114.649,165.991 115.590,166.119 115.544 C 166.536 115.392,186.600 95.213,200.609 80.856 C 203.412 77.983,204.708 77.620,206.958 79.079 " stroke="none" fill="#35809e" fill-rule="evenodd"></path></g></svg>